<svg version="1.1" id="Слой_3" xmlns="http://www.w3.org/2000/svg" xmlns:xlink="http://www.w3.org/1999/xlink" x="0px" y="0px"
	 viewBox="0 0 2000 2000" style="enable-background:new 0 0 2000 2000;" xml:space="preserve">
<path d="M1169.1,527c1-5.9,2-11.8,3.7-17.4c-39.9,13.8-80.2,26.9-120.6,39.2c1.1,0.5,2.2,0.9,3.3,1.4c8,3.6,19.5,9.5,27.4,19.3
	c5.4,6.7,9.8,15.9,13.5,24.3c17.5-9.2,34.1-21.1,53.2-18.9c7.3,0.8,14.4,3.7,21.7,3.2c0.4,0,0.8-0.1,1.1-0.1
	c-0.7-1.7-1.8-3.7-2.6-5.4c-1.2-2.3-2.3-4.5-2.9-6.1c-0.6-1.6-0.8-3.3-0.9-4.7l-0.8-7.8c-0.3-3.3-0.5-7.1,0.6-11.1
	C1167.2,537.8,1168.1,532.3,1169.1,527z"/>
<path d="M523.5,726.6l29.6,16.9c2-0.6,4-1.2,6-1.7c26.6-6.9,57-4.6,78.8-21.3c6.6-5.1,12.1-11.7,19.3-15.9c13.8-8.1,30.9-6,46.9-6.5
	c17.9-0.6,35.5-4.7,52.9-8.8c16.6-3.9,33.1-7.8,49.7-11.7c-1.1-2.8-2-5.6-2.6-8.5c-4-17.7-0.3-38.5,8.8-54.7
	c-47.9,12.7-95.9,25.4-143.8,38.1c-10.9,2.9-21.8,5.8-32.6,8.7c-32.1,8.5-61.8,16-92.8,27.8c-20,7.5-39.9,15.1-60.1,22.1
	C498.4,712.4,511.8,719.9,523.5,726.6z"/>
<path d="M1919.3,746.9c-5.9-23.2-19.8-46.2-28-68.7c-9.4-25.7-18.8-51.4-28.3-77.1c-9.4-25.7-19.1-51.9-35.4-73.8
	c-8.9-12-19.7-22.5-30.4-33c-15.3-15-30.6-29.9-46-44.9c-11.7-11.4-23.4-22.9-33.6-35.7c-13.1-16.5-23.7-35.2-39.7-48.9
	c-12.7-10.9-28-18.2-41.8-27.6c-22.3-15.3-40.3-36.3-62.7-51.3s-52.6-23.6-76.4-10.8c-20,10.8-30.6,33.7-49.1,46.7
	c-18.7,13.1-44.1,15.3-60.5,31.1c-16.3,15.7-19.5,40.7-32.3,59.4c-0.5,0.8-1.1,1.5-1.6,2.2c1.6-0.1,3.2-0.2,4.7-0.3
	c5.3-0.3,10.4-0.6,15.3-1.7c4.4-1,8.7-2.6,13.2-4.3c4.7-1.8,9.5-3.6,14.6-4.7c14.7-3.1,29.7,0.4,42.9,3.6l37.5,8.9
	c8.5,2,19.1,4.5,26.7,11.5c8.4,7.6,11.7,19.2,13.8,29.4c2.4,11.5,3.9,23.2,4.6,34.9c0.1,2.5,0.2,4.9,0.2,7.3c1.5,2.1,3.4,4,5.8,5.4
	c7.7,4.6,17.5,2.5,26.3,3.9c15.7,2.4,27.7,15.7,34.3,30.1c6.6,14.4,8.9,30.4,13.4,45.6c3.4,11.5,7.9,22.6,13.5,33.2
	c3-1.6,5.9-3.2,8.8-4.9c3-1.7,6.1-3.4,9.1-5.1c7.5-4.1,14.8-7.5,21.9-10.5c-12.4-13.4-21.6-30.1-29.4-46.8
	c-11.5-24.7-21.2-50.8-38.4-71.9c-3.2-3.9-6.9-7.8-11.8-9c-4.9-1.2-10.8,0.3-14.6-2.9c-2.5-2.1-3.4-5.8-6-7.9
	c-5.2-4.1-13.6,0.6-19.2-2.9c-3.3-2.1-4.5-6.3-5.2-10.2c-3.1-16.5-3.9-33.4-2.2-50.2c-34.5-17.5-77.1,1.2-114.6-8.2
	c25.4-21.4,58.5-33.5,91.7-33.8c7.4-0.1,15,0.4,22-1.8c7.5-2.4,14.6-7.7,22.3-6.4c6.6,1.2,11.2,6.9,15.5,12
	c22.9,27.8,51.5,50.3,79.8,72.5c2.7,2.2,5.6,4.4,9,5.1c2.4,0.5,5,0.3,7.4,0.7c3.8,0.7,6.9,3.1,10,5.4c25.8,19.7,52.2,39.9,69.3,67.5
	c3.1-3.3,8.9-2.3,12.2,0.8s4.7,7.7,6,12c4.1,13.7,8.3,27.3,12.4,41c6-1.6,12-3.1,18.1-4.7c-2.3,33.6,0,67.6,7,100.5
	c1.3,6,2.7,12.2,1.7,18.3s-5.2,12.1-11.3,13.2c-4,11.3-0.1,22.1,9.2,29.6c11.2-2.9,22.3,4.1,32.6,9.5c8.7,4.6,17.9,8.2,26.5,13
	c14,7.9,26.3,19,35.5,32.2c-8.9-0.7-18.2-1.4-26.5,1.7c-4,1.5-7.7,3.8-11.3,6c-7.2,4.3-14.7,8-22.5,11.3c2.7,5.1,8.6,7.6,13.7,10.3
	c11.2,6,20.8,15,27.5,25.8c3.1,5,5.6,10.9,4.2,16.6c-1.3,5.3-6,9.3-11.1,11.3s-10.7,2.3-16.2,2.6c-1.2,10.7,11.1,19.5,10,30.2
	c-7,1.9-13.9,3.9-20.9,5.8c3.4,14.3,12,27.1,22.8,37c3.9,3.6,8.1,6.8,11.2,11.1s5,9.8,3.4,14.9c-1.6,5-9,11.5-12.2,7.3
	c-7.5-9.9-15.1-19.7-22.6-29.6c-2.6-3.4-5.4-7-9.3-8.9c-3.9-2-9.2-1.8-11.9,1.5c-2.4,2.9-2.2,7.1-1.8,10.9c1.3,13.3,2.5,26.7,3.8,40
	c0.2,2,0.4,4.1-0.4,6c-0.7,1.7-2.1,3-3.2,4.5c-2.7,3.6-3.8,8.3-3,12.7c-8.3-9-18.5-16.4-29.7-21.3c-4.1,12.1-1,25.3,0.1,38
	c1.8,19.4-0.9,39.1-7.9,57.3c-0.7,1.8-1.5,3.7-3,4.9c-4.3,3.3-11-0.6-15.8,1.9c1.9,3,1.6,7.3-0.8,10c-2.3,2.7-6.5,3.6-9.8,2.2
	c-3-1.3-5.9-4.5-8.9-3.2c-1.6,0.7-2.4,2.3-3.2,3.8c-2.4,4.5-5.3,8.7-8.7,12.4c-1.9,2.1-4.3,4.2-7.2,4.4c-3.4,0.2-6.5-2.6-7.7-5.8
	c-1.3-3.2-1.2-6.7-1.2-10.2c0.1-14.4-1.1-28.9-3.5-43.1c-1.2-6.7-5-15.2-11.8-14.2c-6.1,0.9-8,8.8-8.2,15
	c-1.6,41.2,3.6,84-11.7,122.3c-3.4,1.6-6.8-2.1-8.7-5.4c-3.9-6.5-7.8-13.1-11.7-19.6c-7.3,14.3-16.2,27.8-26.7,40
	c-2.5,2.9-5.5,5.9-9.2,6.1c-4.6,0.2-8.4-4.2-9.3-8.7c-1-4.5,0-9.2,0.7-13.7c1.7-12.5-0.2-26.5-9.1-35.5c-2.8,12.2-15.6,21.3-28,19.9
	c-1.5-0.2-3.1-0.6-3.9-1.8c-0.9-1.5-0.2-3.4,0.3-5.1c3.3-12.3-9.5-24.7-6.4-37c2.6-10.3,14.3-14.7,23.8-19.5
	c18.8-9.7,33.4-27.5,39.1-47.9c10.4-7.4,17.1-19.1,18.2-31.8c0.2-2.6,0.2-5.3,1.3-7.7c1-2.2,2.9-3.9,4.7-5.6
	c5.6-5.7,9.7-12.7,13.7-19.7c2.2-3.8,4.5-7.9,4.3-12.3c-0.3-8.9-9.6-14.4-17.8-18c-5.2-2.4-10.5-4.8-15.7-7.1
	c-5.3-2.4-11.7-7.1-9.6-12.6c12,0,24.1,0,36.1,0c4.3,0,8.8,0,12.8,1.7c9.4,3.9,13.1,15.1,15.6,25c4.6,17.5,9.1,35.1,13.7,52.6
	c15.1-20.7,23.3-46.3,23.2-71.9c-0.1-12.4-1.9-25.2,2.6-36.7c1-2.6,2.4-5.1,4.6-6.9c2.1-1.7,4.8-2.5,7.3-3.4
	c11.7-3.7,23.5-7.3,35.2-11c-6.2-16.9-13.3-34.9-28.5-44.6c-2.6-1.7-5.7-3.5-6.1-6.5c-0.1-1.3,0.3-2.6,0.9-3.7
	c2.8-4.9,8.9-6.6,14.3-8.4c5.4-1.8,11.3-5.3,11.6-10.9c0.3-5.1-4.1-9-7.9-12.5c-17.1-15.5-22.5-38.1-29.1-60.2
	c-4.3-14.1,2.1-30-3.1-43.9c-2.9-7.6-9-13.7-11.8-21.4c-2-5.5-2.3-11.4-2.1-17.3c-4.7,9-10.8,17.2-18,24.3c-2.3,2.3-5.1,4.8-8.6,6.7
	c-1.3,0.7-2.5,1.2-3.8,1.7c2.9,1.5,5.9,2.9,8.9,4.2c1.3,19.7,20,36,18.1,55.7c-0.9,9.1-6.1,17.1-9.3,25.7c-6,15.8-5,34,2.6,49.1
	c2.9,5.7,6.7,11.3,6.5,17.7c-0.4,11.2-12.6,17.7-23.1,21.8c-38.4,15.1-76.9,30.1-115.3,45.2c-11.2,4.4-22.9,9.1-30.8,18.3
	c-7.8,9.2-10.1,24.3-1.7,32.9c4.9,5,12.1,6.8,19,8.3c24.4,5.2,49.1,9.3,73.9,12.2c0.4,19.4-5.8,38.8-17.3,54.4
	c-4.2,5.7-9.1,10.9-15.1,14.5c-7.3,4.4-15.8,6.3-23.7,9.6c-7.9,3.2-15.7,8.5-18.5,16.5c-1.4,4-1.7,9-5.3,11.3c-2,1.3-4.6,1.4-7,1.3
	c-33.6-0.6-65.9-12.1-99.2-17.1c-33.2-5-70.6-6-91.6,20.2c-37.3,46.5-81.6,87.5-130.8,121c-6.4,4.3-13.7,8.7-21.2,7.2
	c-9.5-2-14.8-13.1-13.7-22.7c1.1-9.6,6.8-18,12.3-26c26.7-38.4,53.4-76.7,80.2-115.1c-21.2-5.8-44.9-2-63.3,10
	c-9,5.8-16.7,13.5-25.8,19s-20.6,8.8-30.6,4.8c-0.2-18.1-0.3-36.3-0.5-54.4c-19.6,12.5-40,23.6-61.2,33.1
	c0.1-13.2,2.2-26.3,6.1-38.9c-14.4,2.1-29,3.1-43.7,3.1c-4.4,0-8.8-0.1-13.2-0.3c-4.5,4.4-8.7,9.1-12.7,13.7
	c-6.7,7.8-13.1,16.1-17.1,25.5c-13.8,32.7,4.1,70.8-3.5,105.4c-3.2,14.3-10.5,27.3-16.2,40.8c-11.8,28.5-15.9,59.5-19.8,90.1
	c-5,39.1-10,78.2-15.1,117.4c-2.9,22.5-5.7,45.6,0,67.6c3.3,12.5,9.2,24.2,11.7,36.9s0.4,27.4-9.6,35.6c-2,1.6-4.3,2.9-6.8,3
	c-3.2,0.1-6.1-1.8-8.5-3.8c-12.9-11.1-17.2-29.2-19.5-46.1c-9.8-71.5,2-145.5-15.7-215.5c-4.7-18.5-12.4-37.8-28.4-48.3
	c-7.6-4.9-17.3-8.5-20.3-17c-1.9-5.4-0.8-12.4-5.2-16.1c-1.7-1.4-3.9-2.1-6-2.4c-13.3-2.1-26,5.8-39.3,8.3s-31.2-5.6-28.6-18.9
	c0.7-3.9,3.1-7.2,5.5-10.3c11.4-15.4,19.2-33.6,30.6-49c-2.6-12.5-3.5-25.4-2.7-38.1c-31.3,0.4-61.8,17.4-78.7,43.8
	c-11.3,17.7-17.1,39.5-33.2,53.1c-15,12.6-37.7,15.1-55,6c-0.6-12-1.2-23.9-1.9-35.9c-14.9,0.9-29.9-0.2-44.5-3.3
	c-2.6-0.5-5.3-1.2-7.3-3c-4.1-3.9-2.7-10.7-0.3-15.8c11.9-25.1,39.2-38.2,63.7-51.2s50.5-30.9,55.2-58.3
	c-26.4-16.1-61.2,0.8-82,23.6c-4.2,4.6-8.8,9.8-15,9.9c-6.8,0.1-13.1-6.1-19.6-4c-6.2,2-8.7,10.9-15.2,11.6
	c-9.7,1-9.6-14.7-15.9-22.3c-7.9-9.5-24.7-1.9-29.3,9.6c-4.6,11.5-2.2,24.5-3.5,36.8c-2.7,26.1-21.8,47.2-31.2,71.6
	c-21.8,56.5,9.9,121.1-3.5,180.1c-4.2,2.3-9.2-1.1-12.7-4.4c-36.6-35.1-47-89.1-51.7-139.6s-6.1-103.4-30.7-147.8
	c-1.7-3.1-3.7-6.3-6.7-8.3c-4.3-2.8-9.9-2.4-14.5-4.7c-8-3.9-10.4-14.1-10.8-23c-0.8-18.8,3.2-37.9-1.3-56.1
	c-4.5-18.2-22.5-35.5-40.4-29.8c-10.3,3.3-17.4,13.3-20.1,23.8c-2.7,10.5-1.7,21.5-0.7,32.3c2.1,23.1,4.2,46.2,6.3,69.3
	c-7.4,0.9-14.8,1.9-22.2,2.8c0,13.6,0.1,27.2,0.1,40.8c-14.5,1.5-29.1,3-43.6,4.5c21,32.2,32.7,70.4,33.4,108.9
	c0.2,13-3.9,29.6-16.7,31.3c-6.3,0.8-12.3-2.5-17.5-6.2c-35.4-26-47.3-72.9-54.4-116.2c-7.1-43.3-13.2-89.9-42.3-122.8
	c-1.8,14.2-3.6,28.4-5.4,42.6c-7.2,0.3-12.4-7.1-14.1-14.1c-1.7-7-1.6-14.7-5.3-20.9c-4-6.7-11.6-10.3-16.1-16.6
	c-5.1-6.9-5.8-16-6.4-24.5c-1.6-24-3.2-48.3,1.4-71.9c4.6-23.6,16.3-46.8,36.3-60.2c17.7-11.9,39-17.8,61.2-21.4
	c-0.5-3.9-0.5-7.9-0.4-11.9c0.1-1.8-0.6-5.5-1.2-8.5c-0.5-2.5-0.9-4.9-1-6.6c-0.1-1.8,0.2-3.4,0.4-4.8l0.4-2.4
	c-22.5,9.4-44.6,19.7-66.4,30.8c-19.7,10.1-39.3,21-55.7,36c-16.3,15-29.2,34.6-32.5,56.5c-2.7,18.2,1.3,36.9,7.7,54.1
	c4.4,11.7,9.8,23.1,15.3,34.3c6.7,13.6,13.6,27.2,20.4,40.7c10.6,21,21.3,42,31.9,63c14.3,28.2,41.2,58.2,49.7,88.7
	c3.8,13.8,6.6,28,12.3,41c12,27.1,37.5,47.9,66.4,54.2c8.9,1.9,18.4,2.5,26.7-1.2c6.1-2.7,11.1-7.6,15.8-12.4
	c9.3-9.6,18.6-19.7,23.8-32c7.7-18.2,5.9-38.8,9.7-58.2c3.7-19.4,17.1-40.1,36.8-40.3c13.9-0.1,25.9,10.4,33.1,22.3
	c20.1,33.3,12,75.4,14.7,114.2c3.3,49.4,27.8,99.3,71,123.6c14.1,7.9,32.1,12.7,45.9,4.3c11.5-7,16.6-21.6,16.3-35.1
	c-0.3-13.5-5.1-26.5-9-39.4c-10-32.5-15.3-66.3-15.7-100.3c-0.3-19.4,1.3-39.6,10.8-56.4c3.8-6.7,9.3-13.1,16.8-15.1
	c8.8-2.4,18.3,2,24.5,8.5c6.3,6.6,10,15.1,13.7,23.4c10.2,22.9,21.6,45.7,38.6,64.1c17,18.4,40.7,32,65.7,31.8
	c21.3-0.2,41.5-10.2,62.8-11.5c21.6-1.3,42.6,9.6,63.6,4.4c22.5,4.7,39.8,22.2,54.1,40.2c7.6,9.5,14.8,19.4,19.4,30.6
	c9.9,23.8,7.6,50.6,6.1,76.4c-1.6,28.4-2.1,56.8-0.8,85.2c1.2,27.3,4.2,55.3,17.1,79.4c12.9,24.1,37.7,43.6,65,42.8
	c10.3-0.3,21.2-3.9,27.4-12.1c8.4-11,6.3-26.5,3.8-40.1c-7.2-39-14.3-78.1-21.5-117.1c-5.8-31.4-11.5-63.3-8.8-95.2
	c3-34,15.9-67,36.8-94c8.8-11.3,19.5-22,33-26.6c13.6-4.7,30.5-1.9,39,9.7c7.9,10.6,6.9,25.2,5.4,38.3c-2.8,25.6-6,51.6-2.2,77.1
	s15.5,51,36.8,65.5c1.4,1,3,1.9,4.7,1.8c2.6-0.1,4.6-2.5,6-4.7c7.9-12,12.9-25.9,14.5-40.2c1.8-16-0.5-32.4,3.2-48
	c3.6-15,13-28.6,25.8-37.2c3.1-2.1,6.6-4,10.3-4.5c10.2-1.5,19.1,7.2,23.8,16.4c8.6,17,8.6,36.8,8.4,55.9
	c-0.7,55.6-2.1,111.4-11.6,166.1c-5.2,29.8-12.8,59.5-13,89.8s8.1,62.2,30.1,83c1.9,1.8,3.9,3.5,6.4,4.2c5,1.3,10-2,13.4-5.8
	c14.5-16.4,11.3-41.2,15.6-62.7c3.1-15.3,10.3-29.8,10.6-45.3c0.2-8.7-1.8-17.2-3.4-25.7c-7.2-38.5,5.3-78,7.2-117.1
	c1.1-23.2,13-44.5,25.9-63.8c8.8-13.1,21.8-27.4,37.3-24.6c18.8,3.4,29.1,30.2,48,28c6.5-0.8,12.1-5.1,17-9.5
	c15.8-14.2,29.6-32.2,32.9-53.2c2.2-14.2-0.5-28.7-0.6-43c-0.2-19.6,4.8-39.7,16.7-55.3c11.9-15.6,31.3-26,50.9-24.4
	c12.7,1.1,24.5,6.9,36.4,11.6c36.8,14.5,77.1,18.2,116.6,17.2c19.3-0.5,39.2-2.3,56.2-11.4c14-7.5,25.1-19.5,35.8-31.3
	c27.6-30.2,55.1-63.2,82.7-93.3c9.7-10.6,19.4-21.1,29.1-31.7c11.2-12.2,22.5-24.5,30.6-39c4.6-8.2,8-17,11.5-25.8
	c4.9-12.3,9.7-24.7,14.6-37c2.5-6.4,5.1-12.9,6.7-19.6c2.2-9.4,2.6-19.2,2.7-28.9C1942.8,874.5,1935.1,809.7,1919.3,746.9z
	 M1516.6,1126.1c-2.1,2.5-29.6,32.9-20.7,36.6c-8.7-3.6-19-1.4-26.8,3.7c-7.9,5.1-13.6,12.9-18.5,21c-8.1,13.5-14.1,28.3-17.7,43.7
	c-3.9,16.9-4.9,34.4-8.9,51.3c-4,16.9-11.4,33.8-25.3,44.3c-4-10.4-8-20.9-11.9-31.3c-2.1-5.5-4.6-11.5-9.8-14.2
	c-10.1-5.4-21.3,4.7-28.3,13.8c-8.7,11.2-17.4,22.5-24.2,35.1c-14.3,26.7-19.7,59.1-41.7,80c-3.1-2.3-4.1-6.6-4.6-10.4
	c-3-21.6-0.1-43.6-1.4-65.4s-7.8-44.9-25-58.3c-8.5-6.7-18.9-10.3-29.1-13.9c-3.4-1.2-6.9-2.4-10.5-2.3c-7.6,0.1-14.1,5.8-21.7,6.3
	c-7.4,0.5-14.4-4.1-18.9-9.9s-7.4-12.8-10.7-19.5c-10.6-21.4-29.2-40.6-52.8-44.5c-10.9-1.8-22.3-0.3-32.6-4
	c-4.5-1.6-9.3-5.4-8.6-10.2c0.2-1.5,1-2.8,1.7-4.2c13.2-22.6,33.4-41.1,57.1-52.3c1.8-0.8,3.8-1.7,5.7-1.2c4.1,1,4.6,6.5,6.1,10.4
	c3,7.4,12.4,10.6,20,8.4c7.6-2.2,13.4-8.7,16.9-15.8c4.2,5.1,3.5,12.7,0.9,18.8c-2.6,6.1-6.8,11.3-9.3,17.4
	c-4.3,10.3-3.3,22.1-0.6,33c2.6,10.8,7.4,22,17,27.7c19.8,11.7,44.3-6.7,67.3-5c4,0.3,8.1,1.2,12.1,0.7c15.3-2.2,20-23.2,33.8-30
	c8.1-4,17.7-2.4,26.7-2.9c37.8-2.4,62.7-43.2,99.6-51.7c6.5-1.5,13.1-1.9,19.6-2.9c16.3-2.5,31.9-8.5,48.1-11.6
	C1499.9,1114.6,1531.2,1109,1516.6,1126.1z"/>
<path d="M1099.8,612.9c-1.7-5.6-3.7-11.1-6-16.5c-3.5-8.1-8-17.9-13.6-24.8c-6.8-8.4-16.4-14-26.2-18.4
	c-34.5-15.5-74.1-18.4-111.2-11c-37.1,7.4-71.9,24.8-102,47.6c-5.3,4-10.5,8.2-15.2,12.9c-16,16-23.3,43.6-18.4,65.7
	c3.9,17.5,16.6,32.2,32.2,41.1s33.7,12.4,51.6,12.8c24.9,0.6,49.5-4.6,73.8-9.7c37.7-7.9,75.9-16,109.8-34.3
	c4.2-2.3,8.3-4.7,11.6-8.2c5.8-6.2,8.2-15.1,7.7-23.7c-0.5-8.5-3.4-16.7-7-24.4c3.6-1.6,7.2-3.2,10.8-4.8c0.9-0.4,1.9-0.9,2.3-1.8
	C1100.4,614.7,1100.1,613.7,1099.8,612.9z M900.2,586c-8.6,9.7-17.7,21-16.3,33.9c0.1,1.1,0.3,2.4-0.6,3.2c-0.5,0.4-1.2,0.6-1.9,0.6
	c-3.2,0.4-6.4,0.9-9.7,1.3c-0.8,27.7,1.4,55.4,6.4,82.7c-15.9-5.5-30.9-13.7-44-24.3c-2.8-2.2-5.5-4.6-7.3-7.7
	c-3.3-5.7-2.8-12.8-2.1-19.4c1.2-12.1,2.5-24.7,8.4-35.3c5.7-10.4,15.2-18,24.5-25.4c9.8-7.8,19.8-15.7,31.2-21.2
	c3.9-1.9,7.9-3.9,12.1-4.9c2.9-0.7,6-1.1,9-1.2c1.7-0.1,7.7,1.4,9,0.7C911.5,573.2,905.8,579.7,900.2,586z M1078.5,652.6
	c-1.2,8.3-6.9,15.2-13.4,20.4c-13.9,11.2-31.7,16.3-49,20.7c-29.2,7.5-58.8,13.8-88.6,18.2c-2,0.6-4,0.9-6.2,0.9
	c2.1-0.3,4.1-0.6,6.2-0.9c8.1-2.3,15.3-8.2,23.6-10.5c3.7-1,7.5-1.2,11.3-1.7c10.6-1.4,20.7-4.8,30.8-8.3c6.3-2.2,12.7-4.3,19-6.5
	c14.7-5.1,29.6-10.2,42.8-18.5c2.1-1.3,4.2-2.8,5.9-4.7c2.4-2.9,3.5-6.7,4.4-10.4c3.5-15.1,4.2-30.9,1.9-46.3
	c-0.8-5.3-1.4-10.7,1.8-15.4c2.5-3.7,5.4-4.5,6.4,0.9c0.8,4.3-2.2,11.1-2.7,15.5c-0.7,5.3-0.9,10.6-0.1,15.8
	C1074.1,632.2,1080,642.2,1078.5,652.6z"/>
<path d="M1577.8,766.5c-4.3-3.9-8.9-7.6-13.7-11c-7.2-5.1-16.1-11.2-24.5-14.2c-10.1-3.7-21.3-3.5-32-2.1
	c-37.6,4.7-72.9,22.7-100.8,48.3c-27.9,25.6-48.6,58.5-62.5,93.7c-2.4,6.2-4.7,12.5-6.3,18.9c-5.4,22,2.7,49.4,18.4,65.7
	c12.4,12.9,30.9,18.9,48.8,18.4c17.9-0.5,35.2-6.9,50.7-15.8c21.5-12.4,39.9-29.6,58.1-46.6c28.1-26.3,56.6-53,76.1-86.2
	c2.4-4.1,4.7-8.4,5.7-13c1.8-8.3-0.9-17.2-5.7-24.2c-4.8-7-11.6-12.5-18.7-17.2c2.3-3.2,4.5-6.5,6.8-9.7c0.6-0.8,1.1-1.7,1-2.7
	C1579.2,767.9,1578.5,767.2,1577.8,766.5z M1393.2,847.2c-2.3,12.7-4.2,27.2,3.7,37.4c0.7,0.9,1.5,2,1.2,3c-0.2,0.6-0.7,1.1-1.3,1.5
	c-2.5,2-5.1,4.1-7.6,6.1c13.7,24.1,30,46.7,48.4,67.3c-16.4,3.6-33.5,4.3-50.2,2.1c-3.5-0.5-7.1-1.1-10.2-2.8
	c-5.8-3.2-9-9.5-11.9-15.5c-5.3-11-10.7-22.4-11.2-34.5c-0.5-11.8,3.7-23.3,7.8-34.4c4.4-11.8,8.8-23.7,15.6-34.3
	c2.3-3.6,4.7-7.4,7.8-10.5c2.1-2.1,4.5-4.1,7-5.7c1.4-0.9,7.3-2.8,8-4.1C1396.2,830.3,1394.7,838.8,1393.2,847.2z M1580.1,811.6
	c3.3,7.7,2,16.6-0.9,24.4c-6.1,16.8-18.6,30.4-31.2,43.2c-21.1,21.6-43.1,42.3-66.3,61.6c-1.4,1.5-3,2.9-4.8,4
	c1.6-1.3,3.2-2.7,4.8-4c5.7-6.1,8.8-15,14.7-21.2c2.6-2.7,5.8-4.9,8.8-7.3c8.3-6.7,15.2-14.9,22-23.1c4.3-5.1,8.6-10.3,12.9-15.4
	c10-12,20.1-24.1,27-38c1.1-2.3,2.2-4.6,2.6-7.1c0.6-3.8-0.5-7.6-1.6-11.2c-4.8-14.8-12.4-28.6-22.3-40.6c-3.4-4.1-6.7-8.4-6.5-14
	c0.2-4.4,2.3-6.6,5.9-2.6c2.9,3.2,3.9,10.6,5.7,14.6c2.1,4.8,4.7,9.5,8.1,13.6C1565.9,796.4,1576,801.9,1580.1,811.6z"/>
<path d="M892.2,948.9c-0.5-5.8-1.3-11.6-2.5-17.3c-1.8-8.7-4.2-19.2-8.3-27c-4.9-9.6-13.2-17-22-23.3
	c-30.7-22.2-68.9-32.9-106.7-33.2c-37.9-0.2-75.4,9.8-109.5,26.1c-6,2.9-11.9,5.9-17.5,9.6c-18.9,12.5-31.6,38-31.2,60.7
	c0.3,17.9,9.8,34.9,23.2,46.7c13.4,11.8,30.5,18.9,48,22.9c24.2,5.6,49.4,5.5,74.2,5.4c38.5-0.1,77.6-0.4,114.4-11.5
	c4.5-1.4,9.1-2.9,13-5.7c7-4.9,11-13.2,12.3-21.6c1.3-8.4,0-17-2-25.3c3.9-0.8,7.7-1.7,11.6-2.5c1-0.2,2-0.5,2.6-1.3
	C892.3,950.9,892.3,949.9,892.2,948.9z M702,882.5c-10.3,7.8-21.5,17.1-22.8,29.9c-0.1,1.1-0.2,2.4-1.2,3c-0.6,0.3-1.3,0.3-1.9,0.3
	c-3.2-0.2-6.5-0.5-9.7-0.7c-6.3,27-9.8,54.6-10.3,82.3c-14.5-8.6-27.5-19.7-38.2-32.6c-2.3-2.7-4.4-5.6-5.6-9
	c-2.1-6.3-0.1-13.1,1.8-19.5c3.6-11.7,7.4-23.7,15.3-32.9c7.7-9,18.6-14.6,29.1-19.9c11.2-5.7,22.6-11.4,34.8-14.5
	c4.2-1.1,8.5-2.2,12.8-2.4c3-0.1,6.1,0.1,9,0.6c1.7,0.3,7.3,2.9,8.6,2.5C715.7,872.2,708.8,877.3,702,882.5z M863.3,983.5
	c-2.8,7.8-9.8,13.5-17.3,17.3c-15.9,8.2-34.3,9.6-52.2,10.4c-30.1,1.4-60.4,1.6-90.5,0c-2.1,0.2-4.1,0.1-6.2-0.3
	c2.1,0.1,4.1,0.2,6.2,0.3c8.3-0.6,16.6-5,25.2-5.5c3.8-0.2,7.6,0.3,11.4,0.6c10.6,0.8,21.3-0.6,31.9-1.9c6.6-0.9,13.3-1.7,19.9-2.6
	c15.5-2,31.1-4,45.7-9.5c2.4-0.9,4.7-1.9,6.7-3.4c3-2.4,4.8-5.9,6.4-9.3c6.5-14.1,10.3-29.4,11.2-44.9c0.3-5.3,0.8-10.7,4.8-14.7
	c3.1-3.1,6.2-3.3,6.1,2.2c-0.1,4.4-4.3,10.4-5.8,14.6c-1.7,5-3,10.2-3.3,15.5C863.1,962.7,866.8,973.6,863.3,983.5z"/>
<path d="M1285.7,879.4c-1.3-11.5-3.3-22.9-6.2-34.2c-2.6-10-6.2-20.4-14.1-27c-7.1-5.9-16.7-7.8-25.7-9.5c-12.6-2.3-25.3-4.7-37.9-7
	c-13.8-2.6-28.1-5.1-41.6-1.5c-9.4,2.5-17.9,7.8-27.3,10.4c-8,2.2-16.5,2.3-24.7,3.6c-30.8,4.9-56.6,25.8-86,36.2
	c-6.8,2.4-13.9,4.3-20.3,7.6c-14.9,7.8-24.8,22.7-39.2,31.3c-4.2,2.5-8.8,4.4-12.6,7.6c-14.2,11.7-11.6,33.6-15.9,51.5
	c-0.8,3.3-0.6,6.5-0.1,9.9c0.4,2.6,0.8,5.2,1.2,7.8c0.2,1.3,0.4,2.6,0.9,3.9c1.4,3.3,6.2,10.5,7.2,13.9c1.9,6.2,4.1,12.6,8.7,17.2
	c4.3,4.4,10.3,6.7,16.1,8.7c73,25.2,156,21.9,225.7-11.3c14-6.7,27.7-14.7,37.8-26.4c8.5-9.8,14.3-22.2,24.8-29.8
	c4.5-3.2,9.7-5.5,14.1-8.9C1286.2,921.5,1287.8,898.8,1285.7,879.4z M1201.4,831.9c1.2-2,4-2.1,6.3-2.2c7.6-0.5,20.2-8.8,27.4-4.5
	c5.1,3,3,6.4-1.7,7.2c-5,0.8-9.9-0.7-14.5,2.3c-1,0.7-1.9,1.5-2.9,2.1c-1.9,1-4.1,1.2-6.2,1.3c-2.1,0.1-4.4,0.2-6.3-0.9
	C1201.6,836.2,1200.4,833.8,1201.4,831.9z M1201.8,867c0.5-1.4,1.1-2.7,2.1-3.7c1.2-1,2.8-1.4,4.3-1.8c3.6-0.9,9.8-4.1,13.3-3.8
	c2.6,0.2,6.3,3.8,6.4,6.9c0,0.8-0.3,1.6-0.8,2.2c-2.6,4.2-7.4,6.5-12.3,7.4c-4.8,0.8-9.8,0.3-14.7-0.2
	C1200.5,871.6,1201,869.3,1201.8,867z M1152.6,850.8c0.1-12.9,19.8-17.5,30.1-13.6c4.1,1.5,6.4,4.1,2.7,7.7
	c-1.9,1.9-7.5,4.1-10.2,4.9c-3.7,1.1-7.8-0.6-11.4,0.9c-1.9,0.8-3.2,2.5-5,3.6s-4.3,1.5-5.6-0.1
	C1152.6,853.1,1152.5,851.9,1152.6,850.8z M1111.7,828.5c4.4-0.2,9.8,3.1,9.2,8.3c-0.6,6.3-13,10.4-17.6,13
	c-2.3,1.3-4.7,2.6-7.3,3.1c-2.5,0.4-5.1,0-7.7-0.4c-0.6-0.1-1.3-0.2-1.7-0.7c-0.2-0.3-0.3-0.7-0.4-1.1
	C1084,838.9,1101.5,829,1111.7,828.5z M1064,881.8c7.3-2.2,14.5-4.4,21.8-6.7c0.1-4.1,0.2-8.2,0.4-12.4c3.2,0.4,5.4,3.3,7.5,5.7
	c2.1,2.4,5.4,4.7,8.4,3.3c0.2-4.3,0.4-8.7,0.8-13c2.9,8.2,4.9,12.6,13,5.7c7.2-6.2,14-13.1,21-19.6c-3,8.1-6,16.2-9,24.3
	c6.3,0.1,12.6-1,18.5-3.1c3.8,0.1,7.6,0.2,11.5,0.3c2.8,0.1,6.4,0.9,6.7,3.6c0.3,2.7-3,4.3-5.7,5c-9.6,2.5-19.1,5-28.7,7.5
	c12.1-0.8,25.5-1.3,35.2,6c4.6,3.5,8.4,8.7,14.2,9.5c3.8,0.5,8.5-0.9,11.1,1.9c-15.3,5.8-32.1,7.8-48.4,5.8c0.1,4.3-1.4,8.6-4.1,12
	c-2.1-0.9-4.5,0-6.8,0.1c-2.3,0.1-5.2-1.5-4.5-3.7c-7.1,5.7-12.8,12.8-19.3,19.2c-6.4,6.4-13.9,12.2-22.7,14.4
	c0.9-9.5,6.2-18,12.4-25.3c6.2-7.3,13.4-13.6,19.3-21.1c-8.3,0.6-16.5,2.1-24.4,4.4c-0.9-7.8,0.4-15.8,3.9-22.8
	c-3.6,2.8-7.4,5.2-11.6,6.8c-9.7,3.8-20.5,2.9-30.9,2.1c-7.8-0.7-15.7-1.3-23.5-2C1041.7,888.6,1052.9,885.2,1064,881.8z
	 M1061.3,931.4c-0.3,3.1-1.3,6.5-3.9,8.1c-1.9,1.1-4.3,1.1-6.5,1c-2.8-0.1-5.6-0.2-8.4-0.3c-0.4,0-0.9,0-1.3-0.3
	c-0.4-0.2-0.7-0.7-0.9-1.1c-1-2.1-1.5-4.5-1.4-6.9c0-0.6,0.1-1.1,0.4-1.6c0.4-0.6,1-0.9,1.7-1.2c3.6-1.5,7.6-2.2,11.5-1.9l1,0.4
	c1.3,0.4,2.6,0.1,4-0.1s2.9,0.1,3.6,1.2C1061.5,929.5,1061.4,930.5,1061.3,931.4z M1041.4,962.1c0.8,0,1.5,0,2.2,0.3
	c1.5,0.7,2.1,2.7,1.6,4.3c-0.5,1.6-1.9,2.7-3.4,3.5c-4.4,2.4-9.6,2.2-14.5,2c-2.8-0.1-5.5-0.2-8.3-0.4c-3.1-0.1-6.4-0.4-8.9-2.3
	c-2.5-1.9-3.2-6.2-0.7-8c1.4-1,3.2-0.9,4.8-0.9C1023.3,961.2,1032.3,962.2,1041.4,962.1z M991,921.3c0.5-0.7,1.3-1.1,2.1-1.4
	c6-2.7,17.2-8,22.2-0.6c6.5,9.6-6.2,11.3-12.4,11.3c-0.9,0-1.8,0-2.6-0.3c-0.7-0.3-1.3-0.7-1.9-1.1c-1.8-1-3.8-1.4-5.5-2.6
	C991,925.4,989.8,922.9,991,921.3z M1265.9,912.2c-3,4.6-10.1,3.4-15.1,5.7c-7.5,3.4-8.6,13.4-9.5,21.6c-0.9,8.2-4.9,18.3-13.2,18.3
	c-1.1,0-2.2-0.2-3-0.9c-0.9-0.8-1.3-2.1-1.6-3.3c-0.9-3.8-1.8-7.5-2.7-11.3c-3.3,5.8-6.7,11.6-10,17.4c-0.5,0.9-1.2,2-2.3,2.2
	c-1.4,0.3-2.6-1-4-1c-1.5,0-2.6,1.2-4,1.8c-4.8,2.2-9.1-4-10.9-9c-1.6,10-5.3,19.6-10.8,28c-2.8,4.3-7.1,8.7-12.2,8
	c-1.7-0.3-3.4-1.1-5.1-1.3c-8-1-15,11.2-22,7.1c-2.2-1.3-5.4,0.9-6.5,3.1c-1.1,2.2-2.6,5-5.1,4.9c0.3-7.7,1.3-15.4,2.9-22.9
	c-9.5,10.9-20.3,22.5-34.7,24.1c-3,0.3-6.1,0.2-9.1,0.8c-3.6,0.8-7.1,2.6-10.8,2.3c-0.1-5.4-6.7-8.5-12-7.5c-5.3,1-9.6,4.6-14.3,7.2
	c-1.5,0.8-3.2,1.6-4.8,1c-2.9-1-3-5.1-5.2-7.3c-2.5-2.5-6.7-1.7-10-0.3s-7.1,2.9-10.2,1.3c-1.9-1-3.2-3-5-4.1
	c-3.2-1.9-7.3-0.7-10.6,1.1c-3.3,1.8-6.3,4.2-10,4.7c-3.6,0.5-7.3-0.8-10.6-2.4c-12.6-6-23.2-16-30-28.1c-2.3-4.1-4.4-8.7-8.3-11.3
	c-1.5-1-4.5-3.6-4.7-5.5c6.4,1.5,11.9,5.2,17.4,8.9c11.6,7.8,23.2,15.7,34.8,23.5c2.2,1.5,4.7,3.1,7.4,2.9
	c7.6-0.4,11.4-13.4,18.6-10.9c1.4,0.5,2.5,1.5,3.5,2.5c3.2,3,6.5,6.1,9.7,9.1c15-10.4,38.3-2.1,51.9-14.2c2.1-1.8,4.4-4.3,7.1-3.5
	c1.1,0.3,2,1.2,2.9,2c3.2,3.3,6.1,7.1,8.3,11.2c10.8-7.1,20.5-16.1,28.4-26.3c1.5-2,3.1-4.1,5.4-5.2c2.3-1.1,5.5-0.8,6.8,1.3
	c0.7,1.2,0.7,2.8,1.4,4.1c1.6,3.2,6.6,3.2,9.5,1c2.9-2.2,4.4-5.6,6.6-8.6c2.1-2.9,5.5-5.6,9-4.8c2.2,0.5,4.1,2.2,6.3,1.9
	c5.8-0.6,4.5-12,10.3-12.8c3.2-0.4,5.9,3.3,9.1,2.9c2.3-0.3,3.7-2.6,4.9-4.6c8.7-16.1,16.8-32.6,24.1-49.4
	c5.1,14.1,7.2,29.3,6.2,44.3c2.2-0.7,3.8-2.6,5.1-4.4c15.6-21.2,16-50.3,29.7-72.7c1.5,16.8,2.4,33.7,2.7,50.6
	C1267.3,907.5,1267.3,910.1,1265.9,912.2z"/>
<path d="M1523.4,491.8c-0.7-11.6-2.2-23.1-4.6-34.4c-2.1-10.1-5.2-20.7-12.8-27.7c-6.8-6.2-16.3-8.6-25.3-10.7
	c-12.5-3-25-5.9-37.5-8.9c-13.6-3.2-27.8-6.5-41.5-3.5c-9.5,2-18.2,6.9-27.7,9c-8.1,1.8-16.6,1.5-24.8,2.4
	c-31.1,3.4-57.8,23.1-87.7,32c-6.9,2.1-14.1,3.6-20.6,6.6c-15.2,7-25.9,21.5-40.7,29.3c-4.3,2.3-9,4-12.9,6.9
	c-14.8,11-13.2,33-18.4,50.7c-1,3.3-0.9,6.5-0.5,9.9c0.3,2.6,0.5,5.2,0.8,7.8c0.1,1.3,0.3,2.7,0.7,3.9c1.3,3.4,5.6,10.7,6.6,14.3
	c1.6,6.3,3.5,12.8,7.8,17.6c4.1,4.6,10,7.2,15.7,9.5c71.7,28.7,154.7,29.5,226-0.3c14.3-6,28.4-13.3,39.1-24.6
	c8.9-9.4,15.4-21.5,26.2-28.5c4.7-3,10-5,14.6-8.2C1521.9,533.9,1524.6,511.4,1523.4,491.8z M1441.5,440.3c1.2-2,4.1-1.9,6.4-1.9
	c7.6-0.1,20.6-7.8,27.6-3.1c4.9,3.3,2.7,6.5-2,7.1c-5,0.6-9.9-1.2-14.6,1.6c-1,0.6-2,1.5-3,2c-1.9,1-4.1,1-6.3,1
	c-2.1,0-4.4-0.1-6.2-1.2C1441.5,444.7,1440.4,442.1,1441.5,440.3z M1440.2,475.4c0.5-1.3,1.2-2.7,2.3-3.6c1.2-1,2.8-1.3,4.4-1.6
	c3.6-0.7,10-3.6,13.5-3.2c2.6,0.3,6.1,4.1,6.1,7.2c0,0.8-0.4,1.5-0.9,2.2c-2.8,4-7.7,6.2-12.6,6.8c-4.9,0.6-9.8-0.1-14.7-0.9
	C1438.7,480,1439.3,477.6,1440.2,475.4z M1391.8,456.8c0.8-12.9,20.6-16.5,30.8-12.2c4,1.7,6.2,4.4,2.4,7.8c-2,1.8-7.7,3.7-10.4,4.4
	c-3.8,0.9-7.8-1-11.4,0.4c-1.9,0.7-3.4,2.3-5.1,3.3c-1.8,1-4.4,1.3-5.6-0.4C1391.7,459.2,1391.8,458,1391.8,456.8z M1352.1,432.6
	c4.4,0,9.6,3.6,8.8,8.7c-0.9,6.2-13.5,9.7-18.2,12.1c-2.4,1.2-4.8,2.4-7.5,2.7c-2.6,0.3-5.1-0.2-7.7-0.8c-0.6-0.1-1.3-0.3-1.6-0.8
	c-0.2-0.3-0.3-0.7-0.4-1.1C1323.9,441.6,1341.8,432.6,1352.1,432.6z M1301.9,483.5c7.4-1.9,14.7-3.7,22.1-5.6
	c0.3-4.1,0.6-8.2,1-12.3c3.2,0.6,5.2,3.6,7.2,6.1s5.2,4.9,8.2,3.7c0.4-4.3,0.8-8.7,1.4-12.9c2.5,8.3,4.3,12.8,12.7,6.3
	c7.5-5.9,14.6-12.4,21.9-18.6c-3.4,7.9-6.7,15.9-10.1,23.8c6.3,0.4,12.6-0.4,18.7-2.2c3.8,0.3,7.6,0.6,11.4,0.9
	c2.8,0.2,6.3,1.2,6.5,4c0.2,2.7-3.2,4.1-5.9,4.7c-9.7,2-19.3,4.1-29,6.1c12.2-0.2,25.5-0.1,34.9,7.7c4.4,3.7,8,9.1,13.7,10.2
	c3.8,0.7,8.5-0.5,11,2.5c-15.6,5-32.4,6.2-48.6,3.4c-0.1,4.3-1.8,8.5-4.6,11.8c-2-1-4.5-0.2-6.8-0.2c-2.3,0-5.1-1.8-4.3-3.9
	c-7.3,5.3-13.4,12.2-20.2,18.2s-14.5,11.5-23.4,13.2c1.4-9.4,7.1-17.7,13.6-24.7s14.1-12.9,20.3-20.1c-8.3,0.2-16.6,1.3-24.6,3.2
	c-0.6-7.8,1.2-15.8,5-22.6c-3.7,2.6-7.7,4.8-11.9,6.2c-9.9,3.3-20.6,1.9-30.9,0.6c-7.8-1-15.6-2.1-23.4-3.1
	C1279.3,489.2,1290.6,486.4,1301.9,483.5z M1296.8,532.9c-0.5,3.1-1.6,6.4-4.3,7.9c-2,1.1-4.3,0.9-6.6,0.7c-2.8-0.3-5.6-0.5-8.4-0.8
	c-0.4,0-0.9-0.1-1.3-0.3c-0.4-0.3-0.6-0.7-0.8-1.2c-0.9-2.2-1.3-4.6-1.1-6.9c0-0.6,0.1-1.1,0.4-1.6c0.4-0.6,1.1-0.9,1.8-1.1
	c3.7-1.4,7.7-1.8,11.6-1.3l0.9,0.5c1.2,0.5,2.6,0.2,4,0.1c1.3-0.1,2.9,0.2,3.6,1.4C1297,531,1296.9,532,1296.8,532.9z M1275.4,562.7
	c0.8,0,1.5,0.1,2.2,0.4c1.5,0.8,2,2.8,1.3,4.4c-0.6,1.6-2.1,2.6-3.6,3.4c-4.5,2.2-9.7,1.7-14.6,1.3c-2.7-0.3-5.5-0.5-8.2-0.8
	c-3.1-0.3-6.4-0.7-8.8-2.7c-2.4-2-2.9-6.4-0.3-8c1.4-0.9,3.2-0.8,4.9-0.6C1257.4,560.9,1266.3,562.3,1275.4,562.7z M1227,519.4
	c0.5-0.7,1.3-1,2.1-1.3c6.1-2.4,17.6-7.2,22.2,0.4c6,9.9-6.8,10.9-13,10.7c-0.9,0-1.8-0.1-2.6-0.4c-0.7-0.3-1.3-0.8-1.9-1.2
	c-1.7-1.1-3.8-1.6-5.4-2.8S1225.8,521,1227,519.4z M1502.1,523.7c-3.3,4.4-10.2,2.9-15.4,4.9c-7.7,3.1-9.2,13-10.5,21.1
	c-1.3,8.2-5.8,18-14.1,17.6c-1.1-0.1-2.2-0.3-3-1.1c-0.9-0.9-1.2-2.2-1.4-3.4c-0.7-3.8-1.4-7.6-2.1-11.4
	c-3.6,5.6-7.2,11.3-10.8,16.9c-0.6,0.9-1.3,1.9-2.4,2.1c-1.4,0.2-2.6-1.1-4-1.2c-1.5-0.1-2.7,1.1-4.1,1.7c-4.9,2-8.9-4.4-10.4-9.5
	c-2,9.9-6.2,19.3-12.2,27.4c-3,4.2-7.6,8.4-12.6,7.4c-1.7-0.3-3.3-1.3-5-1.6c-8-1.4-15.6,10.4-22.4,6c-2.1-1.4-5.5,0.6-6.7,2.8
	s-2.8,4.8-5.3,4.6c0.7-7.7,2.1-15.3,4.1-22.8c-10,10.4-21.4,21.5-35.8,22.4c-3,0.2-6.1-0.1-9.1,0.4c-3.6,0.6-7.2,2.3-10.9,1.7
	c0.2-5.4-6.3-8.8-11.6-8.1s-9.8,4.1-14.6,6.5c-1.5,0.8-3.3,1.4-4.9,0.8c-2.8-1.1-2.8-5.3-4.8-7.5c-2.4-2.7-6.7-2-10-0.8
	c-3.4,1.2-7.2,2.6-10.3,0.8c-1.9-1.1-3-3.1-4.8-4.3c-3.1-2-7.3-1.1-10.6,0.6c-3.3,1.6-6.5,3.8-10.2,4.2c-3.7,0.4-7.2-1.1-10.5-2.9
	c-12.3-6.6-22.4-17.1-28.7-29.5c-2.1-4.2-4-8.9-7.7-11.7c-1.5-1.1-4.3-3.8-4.4-5.7c6.3,1.8,11.7,5.8,16.9,9.7
	c11.2,8.4,22.4,16.8,33.6,25.2c2.2,1.6,4.5,3.3,7.2,3.3c7.6,0,12.1-12.9,19.1-10c1.3,0.5,2.4,1.6,3.4,2.6c3.1,3.2,6.2,6.4,9.2,9.5
	c15.5-9.7,38.4-0.2,52.6-11.7c2.1-1.7,4.6-4,7.2-3.2c1.1,0.4,2,1.3,2.8,2.1c3.1,3.5,5.7,7.4,7.8,11.6c11.2-6.6,21.2-15.1,29.7-24.9
	c1.6-1.9,3.3-4,5.6-5c2.3-1,5.5-0.6,6.7,1.7c0.7,1.3,0.6,2.8,1.2,4.1c1.5,3.3,6.4,3.5,9.4,1.4c3-2,4.7-5.4,7-8.2
	c2.3-2.8,5.8-5.3,9.3-4.4c2.1,0.6,4,2.4,6.2,2.2c5.8-0.3,5.1-11.8,10.9-12.2c3.2-0.2,5.7,3.6,9,3.3c2.3-0.2,3.9-2.4,5.1-4.4
	c9.5-15.6,18.3-31.7,26.4-48.1c4.4,14.4,5.8,29.6,4,44.5c2.2-0.6,3.9-2.4,5.3-4.2c16.6-20.4,18.4-49.5,33.2-71.2
	c0.7,16.9,0.8,33.8,0.3,50.7C1503.7,519,1503.6,521.7,1502.1,523.7z"/>
<path d="M575.8,830.4c2.6-11.3,4.4-22.8,5.3-34.3c0.9-10.3,0.9-21.3-4.5-30.1c-4.8-7.9-13.2-12.8-21.2-17.4
	c-11.2-6.4-22.3-12.7-33.5-19.1c-12.2-6.9-24.9-14-38.8-15.1c-9.7-0.7-19.5,1.5-29.2,0.9c-8.3-0.6-16.3-3.2-24.5-4.7
	c-30.7-5.5-61.9,5.9-93.2,6c-7.2,0-14.5-0.5-21.6,0.5c-16.6,2.4-30.9,13.3-47.3,16.7c-4.8,1-9.8,1.3-14.4,3
	c-17.3,6.4-22,28-31.9,43.5c-1.8,2.9-2.7,6-3.3,9.3c-0.5,2.6-0.9,5.2-1.4,7.7c-0.2,1.3-0.5,2.6-0.4,4c0.3,3.6,2.4,11.9,2.3,15.5
	c-0.2,6.5-0.2,13.3,2.5,19.1c2.6,5.6,7.5,9.7,12.4,13.5c60.7,47.8,140.2,71.9,217,63.4c15.4-1.7,31-4.8,44.4-12.6
	c11.2-6.5,20.8-16.3,33.2-20c5.3-1.6,11-2,16.3-3.7C562.5,870.3,571.4,849.5,575.8,830.4z M511.7,757.9c1.8-1.5,4.4-0.6,6.7,0
	c7.3,2,22-1.7,27.4,4.8c3.8,4.5,0.7,7-3.9,6.2c-5-0.9-9.1-4-14.4-2.5c-1.2,0.3-2.3,0.8-3.5,1.1c-2.1,0.4-4.2-0.2-6.3-0.8
	c-2.1-0.6-4.2-1.3-5.7-2.9S510.1,759.3,511.7,757.9z M500.6,791.2c0.9-1.1,1.9-2.2,3.2-2.8c1.4-0.6,3.1-0.5,4.6-0.3
	c3.6,0.4,10.6-0.6,13.9,0.7c2.4,1,4.7,5.7,3.8,8.6c-0.2,0.8-0.8,1.4-1.5,1.8c-3.9,3.1-9.2,3.7-14,2.9c-4.9-0.8-9.4-2.9-13.8-5
	C497.8,795.1,499.1,793.1,500.6,791.2z M459.4,759.7c4.4-12.1,24.4-10,32.9-3c3.4,2.8,4.7,5.9,0.1,8.2c-2.5,1.2-8.5,1.4-11.2,1.2
	c-3.9-0.2-7.2-3.1-11-2.9c-2,0.1-3.9,1.3-5.9,1.7c-2,0.5-4.6,0-5.2-1.9C458.6,761.9,459,760.8,459.4,759.7z M428.1,725.2
	c4.2,1.3,8.2,6.1,6,10.9c-2.7,5.7-15.7,5.5-20.9,6.5c-2.6,0.5-5.3,0.9-7.9,0.5c-2.5-0.4-4.9-1.7-7.1-2.9c-0.5-0.3-1.1-0.6-1.4-1.2
	c-0.1-0.4-0.1-0.8,0-1.1C398.5,725.9,418.3,722.3,428.1,725.2z M365.6,759.9c7.6,0.3,15.2,0.6,22.8,0.8c1.5-3.9,2.9-7.7,4.4-11.6
	c2.9,1.4,4,4.9,5.2,7.9c1.2,3,3.6,6.2,6.8,5.9c1.6-4,3.2-8.1,5-12c0.1,8.7,0.5,13.5,10.4,9.6c8.9-3.5,17.5-7.8,26.2-11.6
	c-5.5,6.7-10.9,13.3-16.4,20c5.9,2.1,12.2,3.2,18.5,3.1c3.6,1.4,7.1,2.7,10.7,4.1c2.6,1,5.8,2.9,5.1,5.6c-0.6,2.7-4.2,3.1-7,2.8
	c-9.9-0.8-19.7-1.5-29.6-2.3c11.7,3.2,24.5,7.1,31.3,17.2c3.2,4.8,5.1,11,10.3,13.6c3.5,1.8,8.3,1.9,9.9,5.5
	c-16.4,0.4-32.9-3.2-47.6-10.4c-1.3,4.1-4.1,7.7-7.8,10c-1.7-1.6-4.2-1.5-6.5-2.1c-2.2-0.6-4.4-3.1-3-5c-8.5,3-16.3,7.9-24.5,11.8
	c-8.2,3.9-17.1,7-26.2,6.1c4-8.7,11.8-15,20-19.8s17.1-8.4,25.2-13.6c-8-2.2-16.3-3.5-24.5-3.9c1.7-7.7,5.6-14.8,11.2-20.3
	c-4.3,1.4-8.7,2.5-13.2,2.6c-10.4,0.4-20.3-4-29.8-8.2c-7.2-3.2-14.4-6.4-21.6-9.6C342.2,759.1,353.9,759.5,365.6,759.9z
	 M346.7,805.9c-1.3,2.8-3.3,5.7-6.4,6.4c-2.2,0.5-4.4-0.4-6.5-1.2c-2.6-1-5.2-2.1-7.8-3.1c-0.4-0.2-0.9-0.3-1.1-0.7
	c-0.3-0.4-0.4-0.9-0.5-1.4c-0.3-2.3,0-4.8,0.9-7c0.2-0.5,0.4-1.1,0.9-1.4c0.5-0.5,1.3-0.5,2-0.6c3.9-0.3,7.9,0.4,11.5,2l0.8,0.7
	c1.1,0.8,2.5,0.9,3.8,1.2c1.3,0.3,2.7,1,3,2.3C347.5,804.2,347.1,805.1,346.7,805.9z M317.8,828.4c0.7,0.2,1.5,0.5,2,1
	c1.2,1.1,1.1,3.3,0.1,4.6c-1,1.3-2.7,2-4.4,2.2c-4.9,0.8-9.8-1.1-14.4-2.9c-2.6-1-5.1-2-7.7-3.1c-2.9-1.2-6-2.5-7.7-5.1
	c-1.7-2.6-1-6.9,2-7.8c1.6-0.5,3.3,0.2,4.9,0.8C301,821.7,309.2,825.5,317.8,828.4z M283.6,773.3c0.7-0.5,1.6-0.6,2.4-0.7
	c6.6-0.6,18.9-1.9,21.2,6.7c2.9,11.2-9.6,8.6-15.5,6.6c-0.8-0.3-1.7-0.6-2.4-1.2c-0.6-0.5-1-1.1-1.5-1.7c-1.3-1.6-3.2-2.6-4.4-4.2
	C282.3,777.2,282,774.5,283.6,773.3z M546.3,854.9c-4.4,3.3-10.6-0.1-16.1,0.4c-8.2,0.8-12.5,9.8-16,17.3
	c-3.5,7.5-10.7,15.7-18.4,12.9c-1-0.4-2-0.9-2.6-1.9c-0.6-1.1-0.5-2.4-0.4-3.7c0.4-3.8,0.8-7.7,1.2-11.5c-5,4.4-10.1,8.8-15.1,13.1
	c-0.8,0.7-1.8,1.5-2.9,1.3c-1.4-0.2-2.1-1.8-3.5-2.3c-1.4-0.5-2.9,0.3-4.4,0.4c-5.3,0.5-7.3-6.7-7.3-12.1
	c-4.7,8.9-11.4,16.8-19.4,22.9c-4.1,3.1-9.6,5.9-14.2,3.5c-1.6-0.8-2.8-2.2-4.4-2.9c-7.2-3.6-17.9,5.6-23.1-0.5
	c-1.6-1.9-5.4-1-7.2,0.8s-4.1,3.8-6.4,2.9c2.8-7.2,6.3-14.1,10.3-20.7c-12.5,7.2-26.6,14.6-40.7,11.4c-3-0.7-5.8-1.8-8.8-2.2
	c-3.7-0.5-7.6,0.2-10.9-1.4c1.7-5.1-3.5-10.2-8.9-11c-5.3-0.8-10.6,1.2-15.9,2.1c-1.7,0.3-3.6,0.4-4.9-0.6c-2.4-1.9-1.2-5.8-2.5-8.6
	c-1.5-3.2-5.8-3.8-9.4-3.6s-7.6,0.4-10.1-2.1c-1.5-1.6-2-3.9-3.4-5.5c-2.4-2.8-6.7-3.1-10.3-2.4c-3.7,0.6-7.3,1.9-11,1.2
	c-3.6-0.7-6.6-3.1-9.2-5.7c-9.9-9.8-16.7-22.7-19.2-36.4c-0.8-4.6-1.3-9.6-4.1-13.4c-1.1-1.5-3.1-4.9-2.7-6.7
	c5.5,3.5,9.6,8.8,13.5,14.1c8.4,11.2,16.7,22.4,25.1,33.6c1.6,2.2,3.4,4.4,6,5.2c7.3,2.1,15.2-8.9,21.1-4.2c1.1,0.9,1.8,2.2,2.5,3.5
	c2.1,3.9,4.1,7.8,6.2,11.8c17.6-5,36.9,10.6,53.7,3.6c2.5-1.1,5.5-2.6,7.8-1c1,0.7,1.5,1.8,2,2.8c2,4.2,3.4,8.7,4.2,13.3
	c12.6-3.2,24.6-8.5,35.5-15.5c2.1-1.4,4.3-2.9,6.8-3.2s5.4,1,6,3.5c0.3,1.4-0.2,2.9,0,4.3c0.5,3.6,5.2,5.1,8.6,4s6-3.9,9-5.9
	c3-2.1,7-3.5,10.1-1.6c1.9,1.1,3.1,3.4,5.3,3.9c5.7,1.3,8.2-9.9,13.9-8.7c3.2,0.7,4.5,5.1,7.7,5.7c2.3,0.5,4.4-1.2,6.1-2.8
	c13.5-12.3,26.5-25.3,38.9-38.7c0.2,15-2.8,30-8.7,43.8c2.3,0,4.4-1.2,6.3-2.5c21.7-14.9,31.6-42.3,51.9-59
	c-4.1,16.4-8.8,32.6-14,48.7C549.2,850.9,548.3,853.4,546.3,854.9z"/>
<path d="M1750.7,624.8c-0.6-9.9-2.4-20.5-9.3-27.7c-7.8-8-20-9.7-31.2-9.3c-24.8,1-48.7,10.3-70.5,22.1c-16.4,8.9-32.4,19.4-50.7,23
	c-6.4,1.3-12.9,1.6-19.4,2c-42.3,2.4-85.3,5.1-125.2,19.5c-10.7,3.8-21.3,8.7-29.2,16.8c-4.8,5-11.3,11.9-9.6,18.5
	c2.1,8,8.8,16.7,12.7,24.1c1,1.9,2.1,4,4,5.1c1.6,1,3.5,1.2,5.4,1.4c36.6,3.3,73.8,0.8,109.6,9.2c13.6,3.2,27,7.9,40.9,8.5
	c11.8,0.5,23.6-2,35-5.1c18.9-5.1,38.3-12.5,50.9-27.6c5.6-6.6,9.9-14.8,17.5-18.9c3.1-1.7,6.7-2.6,9.8-4.2c2.9-1.6,5.5-3.8,7.8-6.1
	c12.7-12.5,21.8-28.6,25.8-46c6.7,0.3,11.2,7.1,13.1,13.6c1.8,6.5,2.2,13.6,5.9,19.2C1750.6,651.6,1751.5,637.9,1750.7,624.8z
	 M1682,638.9c-10.5,9-23.4,15.1-37,17.6c4.8,2,10.2,0,15.3-1.1s11.7-0.7,13.9,4.1c-25.5,8.9-52.2,14.6-79.2,16.8
	c8.5,2.3,17.4,5.5,23.1,12.2c-11.7,2.5-23.9,5-35.7,2.6c-7.7-1.6-15-5.3-22.8-6.5c-9.2-1.4-18.6,0.6-27.6,2.6
	c23.1,9.2,46.2,18.4,69.3,27.5c-31.6-0.9-63.1-5.6-93.6-14.1c-7.2-2-15.2-4.1-21.8-0.7c-1.5,0.8-3,1.9-4.6,2.5
	c-1.8,0.6-3.7,0.6-5.6,0.6c-10.2,0-20.5,0.1-30.7,0c-5.7-0.1-13.9-0.5-8-6.8c4.4-4.6,14.6-5.7,20.4-7.5c10-3.2,19.8-7.3,29.7-11.1
	c8.9-3.4,17.9-6.8,26.6-10.8c-3.2,4-5.4,8.8-6.2,13.8c7.9,1.4,15.9-1.7,22.5-6.2c6.6-4.4,12.3-10.1,18.7-14.9c2-1.5,4.7-2.9,6.8-1.5
	c1.2,0.7,1.8,2.2,3,2.9c4,2.5,8.9-5,13.1-2.9c3.8,1.9,2.8,9.6,7,9.6c1.1,0,2-0.6,2.9-1.3c16.6-11.5,33.2-23.1,49.8-34.6
	c-0.1,5.5-0.3,11-0.4,16.6c8.3,1.1,16.1-4,23.1-8.6c20.4-13.3,42.3-24.1,65.2-32.3C1704,613.3,1694.4,628.2,1682,638.9z"/>
<path d="M1113.2,734.1c-0.6-9.9-2.4-20.5-9.3-27.7c-7.8-8-20-9.7-31.2-9.3c-24.8,1-48.7,10.3-70.5,22.1c-16.4,8.9-32.4,19.4-50.7,23
	c-6.4,1.3-12.9,1.6-19.4,2c-42.3,2.4-85.3,5.1-125.2,19.5c-10.7,3.8-21.3,8.7-29.2,16.8c-4.8,5-11.3,11.9-9.6,18.5
	c2.1,8,8.8,16.7,12.7,24.1c1,1.9,2.1,4,4,5.1c1.6,1,3.5,1.2,5.4,1.4c36.6,3.3,73.8,0.8,109.6,9.2c13.6,3.2,27,7.9,40.9,8.5
	c11.8,0.5,23.6-2,35-5.1c18.9-5.1,38.3-12.5,50.9-27.6c5.6-6.6,9.9-14.8,17.5-18.9c3.1-1.7,6.7-2.6,9.8-4.2c2.9-1.6,5.5-3.8,7.8-6.1
	c12.7-12.5,21.8-28.6,25.8-46c6.7,0.3,11.2,7.1,13.1,13.6c1.8,6.5,2.2,13.6,5.9,19.2C1113.1,760.9,1114,747.1,1113.2,734.1z
	 M1044.5,748.1c-10.5,9-23.4,15.1-37,17.6c4.8,2,10.2,0,15.3-1.1s11.7-0.7,13.9,4.1c-25.5,8.9-52.2,14.6-79.2,16.8
	c8.5,2.3,17.4,5.5,23.1,12.2c-11.7,2.5-23.9,5-35.7,2.6c-7.7-1.6-15-5.3-22.8-6.5c-9.2-1.4-18.6,0.6-27.6,2.6
	c23.1,9.2,46.2,18.4,69.3,27.5c-31.6-0.9-63.1-5.6-93.6-14.1c-7.2-2-15.2-4.1-21.8-0.7c-1.5,0.8-3,1.9-4.6,2.5
	c-1.8,0.6-3.7,0.6-5.6,0.6c-10.2,0-20.5,0.1-30.7,0c-5.7-0.1-13.9-0.5-8-6.8c4.4-4.6,14.6-5.7,20.4-7.5c10-3.2,19.8-7.3,29.7-11.1
	c8.9-3.4,17.9-6.8,26.6-10.8c-3.2,4-5.4,8.8-6.2,13.8c7.9,1.4,15.9-1.7,22.5-6.2c6.6-4.4,12.3-10.1,18.7-14.9c2-1.5,4.7-2.9,6.8-1.5
	c1.2,0.7,1.8,2.2,3,2.9c4,2.5,8.9-5,13.1-2.9c3.8,1.9,2.8,9.6,7,9.6c1.1,0,2-0.6,2.9-1.3c16.6-11.5,33.2-23.1,49.8-34.6
	c-0.1,5.5-0.3,11-0.4,16.6c8.3,1.1,16.1-4,23.1-8.6c20.4-13.3,42.3-24.1,65.2-32.3C1066.5,722.5,1056.9,737.5,1044.5,748.1z"/>
</svg>
